<svg id="Group_77" data-name="Group 77" xmlns="http://www.w3.org/2000/svg" width="136.675" height="50.898" viewBox="0 0 136.675 50.898">
  <g id="Group_48" data-name="Group 48" transform="translate(0 0)">
    <g id="Group_58" data-name="Group 58">
      <path id="Path_66" data-name="Path 66" d="M136.674,35.43,109.8,7.034A13.048,13.048,0,0,0,95.84,4.5L73.947,13.525,84,24.64l25.657-10.632a5.262,5.262,0,0,1,5.625,1.02l4.389,4.655-46.66,19.1a5.258,5.258,0,0,1-5.623-1.02L52.742,24a12.67,12.67,0,0,0-15.634-1.4A96.4,96.4,0,0,1,0,36.944L10.262,48.357C29.181,46.319,45.116,36.038,52.17,31.443a4.905,4.905,0,0,1,6.052.549L72.862,45.758a13.052,13.052,0,0,0,13.96,2.531L130.06,30.707l5.055,5.361Z" transform="translate(0.001 -3.496)" fill="#ba8a55"/>
      <path id="Path_67" data-name="Path 67" d="M180.225,77.082l3.674,4.065A6.272,6.272,0,0,0,191,82.713l6.464-2.823L190.8,72.775Z" transform="translate(-74.969 -32.315)" fill="#ba8a55"/>
      <path id="Path_68" data-name="Path 68" d="M5.3,21.818c-.239,0-.364-.124-.364-.52V20.143H5.2s.739,0,.885.562c.334,1.238.209,1.238.936,1.249H7.48v-.135a.553.553,0,0,1-.614-.437c-.207-1.186-.707-1.311-1.008-1.3a.953.953,0,0,0,1.008-1.061c0-.947-.624-1.082-1.758-1.082H4.026v.135c.25,0,.355.031.355.4v2.757c0,.478-.1.593-.355.593v.135H5.3Zm-.364-3.745h.176c.614,0,1.134,0,1.134.947,0,1-.488.988-1.134.988H4.931Z" transform="translate(-1.674 -9.503)" fill="#ba8a55"/>
      <path id="Path_69" data-name="Path 69" d="M3.829,22.474A3.819,3.819,0,1,0,0,18.655a3.823,3.823,0,0,0,3.829,3.819m0-7.117a3.293,3.293,0,1,1-3.3,3.3,3.3,3.3,0,0,1,3.3-3.3" transform="translate(0.001 -8.214)" fill="#ba8a55"/>
    </g>
  </g>
</svg>
