<svg xmlns="http://www.w3.org/2000/svg" xmlns:xlink="http://www.w3.org/1999/xlink" width="236.786" height="30.016" viewBox="0 0 236.786 30.016">
  <defs>
    <clipPath id="clip-path">
      <rect id="Rectangle_13" data-name="Rectangle 13" width="236.786" height="30.016" fill="none"/>
    </clipPath>
  </defs>
  <g id="Group_47" data-name="Group 47" transform="translate(0 0)">
    <path id="Path_38" data-name="Path 38" d="M280.978,0l-1.033,1.055L278.891,0l-1.117,1.141,1.117,1.117,1.054-1.032,1.033,1.033L282.1,1.142Z" transform="translate(-188.014 0)" fill="#213565"/>
    <path id="Path_39" data-name="Path 39" d="M320.237,3.043,319.1,1.9l-1.117,1.141L319.1,4.161Z" transform="translate(-215.228 -1.288)" fill="#213565"/>
    <g id="Group_48" data-name="Group 48" transform="translate(0 0)">
      <g id="Group_47-2" data-name="Group 47" transform="translate(0 0)" clip-path="url(#clip-path)">
        <path id="Path_40" data-name="Path 40" d="M298.312,15.131a1.146,1.146,0,0,0,.024.237h-2.808v-2.2a3.7,3.7,0,0,0-.932-2.73,3.638,3.638,0,0,0-2.7-.9c-.867.021-1.15.054-6.767.963l-.037.006-.387.4V9.2l-1.757.937v5.234h-2.58V12.512a3.888,3.888,0,1,0-3.876,3.753H278.3l.5-.516a1.121,1.121,0,0,0,.948.516h13.694l.5-.519a1.118,1.118,0,0,0,.945.519h3.137l.482-.518a1.151,1.151,0,0,0,.943.518h.643V9.2l-1.777.935Zm-4.538.237H284.7V11.461c6.491-1.011,6.612-1.006,7.189-.987,1.3.051,1.857.826,1.857,2.59v2.066a1.144,1.144,0,0,0,.024.237m-15.14,0h-2.143c-.5,0-2.119-.206-2.119-2.856s1.622-2.856,2.119-2.856,2.119.206,2.119,2.856v2.619a1.144,1.144,0,0,0,.024.237" transform="translate(-184.509 -5.929)" fill="#213565"/>
        <path id="Path_41" data-name="Path 41" d="M349.247,36.456l1.142,1.118,1.118-1.118-1.118-1.118Z" transform="translate(-236.392 -23.919)" fill="#213565"/>
        <path id="Path_42" data-name="Path 42" d="M447.5,1.227l1.032,1.032,1.141-1.117L448.528,0,447.5,1.056,446.463,0l-1.118,1.142,1.118,1.118Z" transform="translate(-301.437 0)" fill="#213565"/>
        <path id="Path_43" data-name="Path 43" d="M399.246,10.135a1.144,1.144,0,0,0,.024.237h-2.89V7.516a3.888,3.888,0,0,0-7.772,0,3.641,3.641,0,0,0,1.279,2.856H365.861V1.378l-1.777.935v8.956h30.228l.482-.518a1.151,1.151,0,0,0,.943.518h3.2l.5-.52a1.152,1.152,0,0,0,.944.52h.643V1.378l-1.777.935Zm-4.62.237h-2.143c-.5,0-2.119-.206-2.119-2.856s1.622-2.856,2.119-2.856,2.119.206,2.119,2.856v2.619a1.144,1.144,0,0,0,.024.237" transform="translate(-246.435 -0.933)" fill="#213565"/>
        <path id="Path_44" data-name="Path 44" d="M484.739,11.269h1.777V1.378l-1.777.936Z" transform="translate(-328.102 -0.932)" fill="#213565"/>
        <path id="Path_45" data-name="Path 45" d="M521.382,36.37l-1.033-1.033-1.119,1.119,1.119,1.119,1.033-1.033,1.032,1.032,1.142-1.118-1.142-1.118Z" transform="translate(-351.447 -23.918)" fill="#213565"/>
        <path id="Path_46" data-name="Path 46" d="M567.8,36.361l-1.044-1.022-1.118,1.118,1.118,1.118,1.044-1.022,1.022,1.022,1.142-1.118-1.142-1.118Z" transform="translate(-382.859 -23.919)" fill="#213565"/>
        <path id="Path_47" data-name="Path 47" d="M585.388,36.456l1.142,1.118,1.118-1.118-1.118-1.118Z" transform="translate(-396.227 -23.919)" fill="#213565"/>
        <path id="Path_48" data-name="Path 48" d="M678.44,36.456l1.118,1.118,1.142-1.118-1.142-1.118Z" transform="translate(-459.21 -23.919)" fill="#213565"/>
        <path id="Path_49" data-name="Path 49" d="M573.555,10.135a1.146,1.146,0,0,0,.024.237h-2.429a.384.384,0,0,1-.353-.269c-.163-.3-.341-.719-.548-1.207-.226-.535-.507-1.2-.862-1.921a4.281,4.281,0,0,0-4.068-2.25h-4.289l-.87.9h4.914A2.588,2.588,0,0,1,567.652,7.4c.153.343.3.685.438,1.015.3.706.583,1.376.905,1.959H534.258V4.2l-1.777.935v5a1.142,1.142,0,0,0,.024.237h-3.28V4.2l-1.777.935v5a1.168,1.168,0,0,0,.024.237h-3.259V1.378l-1.777.936v7.821a1.168,1.168,0,0,0,.024.237H519.65V7c0-2.09-1.377-3.242-3.876-3.242a3.7,3.7,0,0,0-3.9,3.753,3.64,3.64,0,0,0,1.279,2.856H509.7c-.5,0-2.119-.206-2.119-2.856a4.33,4.33,0,0,1,.159-1.217l.025-.086-.078-.043a1.255,1.255,0,0,0-1.2-.008,1.22,1.22,0,0,0-.647.97c-.011.125-.017.254-.017.384a3.691,3.691,0,0,0,3.876,3.753h6.188v-.9h-.111c-.5,0-2.119-.206-2.119-2.856s1.622-2.855,2.119-2.855c.987,0,2.119.266,2.119,2.344v3.13a1.136,1.136,0,0,0,1.134,1.134h3.1l.5-.52a1.152,1.152,0,0,0,.945.52h3.566l.5-.52a1.152,1.152,0,0,0,.944.52h3.608l.482-.518a1.152,1.152,0,0,0,.943.518H568.7l.505-.523a1.2,1.2,0,0,0,1.023.523h3.014l.5-.52a1.153,1.153,0,0,0,.945.52h.643V1.378l-1.777.936Z" transform="translate(-342.372 -0.933)" fill="#213565"/>
        <path id="Path_50" data-name="Path 50" d="M727.271,2.314v8.955h1.777V1.378Z" transform="translate(-492.262 -0.933)" fill="#213565"/>
        <path id="Path_51" data-name="Path 51" d="M272.6,69.335a3.065,3.065,0,0,0,.429-.325,5.023,5.023,0,0,0,.343-.379,1.451,1.451,0,0,0,.258-.472l3.21-9.191-.172-.464,1.94-.139,3.724,10.15a3.122,3.122,0,0,0,.172.372,1.261,1.261,0,0,0,.172.248,1.913,1.913,0,0,0,.189.2H280.1a.706.706,0,0,0,.189-.217.735.735,0,0,0,.094-.209.672.672,0,0,0,.026-.147.577.577,0,0,0-.069-.248l-1.116-3.048h-4.463l-.944,2.692a.8.8,0,0,0-.051.279.834.834,0,0,0,.051.248.9.9,0,0,0,.189.31,1.5,1.5,0,0,0,.361.34Zm2.214-4.023h4.36l-2.248-6.1Z" transform="translate(-184.509 -39.505)" fill="#213565"/>
        <path id="Path_52" data-name="Path 52" d="M306.7,58.844h2.541a1.672,1.672,0,0,0-.154.232,1.2,1.2,0,0,0-.12.263,1.078,1.078,0,0,0-.051.341v9.856h1.8a3.5,3.5,0,0,0,1.734-.386,4.073,4.073,0,0,0,1.115-.89,3.723,3.723,0,0,0,.627-.982,6.034,6.034,0,0,0,.249-.681h.309l-.738,3.079H306.7a1.5,1.5,0,0,0,.172-.232,2.567,2.567,0,0,0,.1-.255,1,1,0,0,0,.051-.333V59.68a1.078,1.078,0,0,0-.051-.341,2.389,2.389,0,0,0-.1-.263q-.086-.124-.172-.232" transform="translate(-207.592 -39.829)" fill="#213565"/>
        <path id="Path_53" data-name="Path 53" d="M347.653,63.967a6.04,6.04,0,0,1,.472-2.491,5.167,5.167,0,0,1,1.219-1.733,4.841,4.841,0,0,1,1.674-1.006,5.479,5.479,0,0,1,1.819-.325,4.787,4.787,0,0,1,1.794.3,3.915,3.915,0,0,1,1.219.743,2.469,2.469,0,0,1,.832,1.772q0,.078-.026.34a1.027,1.027,0,0,1-.3.565.97.97,0,0,1-.755.3.915.915,0,0,1-.8-.286,1.042,1.042,0,0,1-.206-.557q-.009-.27-.009-.379,0-.34.026-.611c.017-.18.026-.322.026-.426a2.757,2.757,0,0,0-.094-.689,1.219,1.219,0,0,0-.464-.65,2.072,2.072,0,0,0-1.244-.286,2.449,2.449,0,0,0-1.4.41,3.376,3.376,0,0,0-1.03,1.137,6.084,6.084,0,0,0-.644,1.717,9.765,9.765,0,0,0-.223,2.15,7.742,7.742,0,0,0,.3,2.236,5.829,5.829,0,0,0,.8,1.7,3.611,3.611,0,0,0,1.167,1.083,2.784,2.784,0,0,0,1.39.379,2.663,2.663,0,0,0,.807-.1,1.329,1.329,0,0,0,.481-.255.83.83,0,0,0,.232-.317.882.882,0,0,0,.06-.3v-3a1,1,0,0,0-.052-.333q-.051-.147-.1-.271a2.059,2.059,0,0,0-.172-.217h2.541a1.1,1.1,0,0,0-.154.217q-.051.124-.1.271a1,1,0,0,0-.051.333v4.131a3.028,3.028,0,0,0-.609-.364,1.3,1.3,0,0,0-.489-.1,1.21,1.21,0,0,0-.377.062l-.429.139a4.7,4.7,0,0,1-.661.185,4.591,4.591,0,0,1-.918.078,6.871,6.871,0,0,1-2.111-.325,4.785,4.785,0,0,1-1.768-1.006,4.913,4.913,0,0,1-1.21-1.733,6.242,6.242,0,0,1-.455-2.491" transform="translate(-235.313 -39.538)" fill="#213565"/>
        <path id="Path_54" data-name="Path 54" d="M380.8,58.844h6.952l.652,2.661h-.292a4.793,4.793,0,0,0-.24-.6,3.038,3.038,0,0,0-.6-.843,3.634,3.634,0,0,0-1.1-.743A4.143,4.143,0,0,0,384.438,59h-1.425v5.183h2.4a.98.98,0,0,0,.438-.116,2.826,2.826,0,0,0,.437-.271,3.433,3.433,0,0,0,.446-.371V65.11a4.967,4.967,0,0,0-.446-.387,2.9,2.9,0,0,0-.437-.271.984.984,0,0,0-.438-.116h-2.4v5.2h1.8a3.549,3.549,0,0,0,1.742-.386,3.9,3.9,0,0,0,1.115-.89,3.639,3.639,0,0,0,.61-.982,6.683,6.683,0,0,0,.24-.681h.326l-.738,3.079H380.8a1.483,1.483,0,0,0,.172-.232,2.567,2.567,0,0,0,.1-.255,1.012,1.012,0,0,0,.051-.333V59.68a1.086,1.086,0,0,0-.051-.341,2.389,2.389,0,0,0-.1-.263q-.086-.124-.172-.232" transform="translate(-257.749 -39.829)" fill="#213565"/>
        <path id="Path_55" data-name="Path 55" d="M409.272,58.843h4.119a9.046,9.046,0,0,1,1.3.093,3.608,3.608,0,0,1,1.141.348,2.157,2.157,0,0,1,.807.7,2.006,2.006,0,0,1,.309,1.16,1.785,1.785,0,0,1-.592,1.462,3.276,3.276,0,0,1-1.519.658,4.128,4.128,0,0,1,1.244.371,3.659,3.659,0,0,1,1,.7,3,3,0,0,1,.652.959,2.959,2.959,0,0,1,.232,1.176,2.843,2.843,0,0,1-.275,1.23,3.19,3.19,0,0,1-.755,1.013,3.677,3.677,0,0,1-1.133.689,3.78,3.78,0,0,1-1.39.255h-5.132a1.56,1.56,0,0,0,.172-.232,2.6,2.6,0,0,0,.1-.255,1,1,0,0,0,.052-.333v-9.16a1.064,1.064,0,0,0-.052-.34,2.337,2.337,0,0,0-.1-.263q-.086-.124-.172-.232m2.214.155v4.24h.189a9.515,9.515,0,0,0,1.219-.077,3.8,3.8,0,0,0,1.081-.294,1.914,1.914,0,0,0,.781-.634,1.814,1.814,0,0,0,.3-1.083,1.926,1.926,0,0,0-.266-1.052,1.878,1.878,0,0,0-.721-.658A3.5,3.5,0,0,0,413,59.1a8.209,8.209,0,0,0-1.322-.1Zm0,10.521h1.2a3.552,3.552,0,0,0,1.313-.24,3.5,3.5,0,0,0,1.073-.658,3.107,3.107,0,0,0,.73-.975,2.7,2.7,0,0,0,.266-1.176,2.734,2.734,0,0,0-.266-1.191,3.175,3.175,0,0,0-.721-.975,3.375,3.375,0,0,0-1.073-.658,3.621,3.621,0,0,0-1.322-.24h-1.2Z" transform="translate(-277.021 -39.829)" fill="#213565"/>
        <path id="Path_56" data-name="Path 56" d="M439.975,58.844h6.952l.652,2.661h-.292a4.806,4.806,0,0,0-.24-.6,3.031,3.031,0,0,0-.6-.843,3.627,3.627,0,0,0-1.1-.743A4.141,4.141,0,0,0,443.614,59h-1.425v5.183h2.4a.979.979,0,0,0,.438-.116,2.829,2.829,0,0,0,.438-.271,3.482,3.482,0,0,0,.446-.371V65.11a5.071,5.071,0,0,0-.446-.387,2.906,2.906,0,0,0-.438-.271.983.983,0,0,0-.438-.116h-2.4v5.2h1.8a3.549,3.549,0,0,0,1.742-.386,3.909,3.909,0,0,0,1.115-.89,3.629,3.629,0,0,0,.609-.982,6.87,6.87,0,0,0,.24-.681h.326l-.738,3.079h-7.312a1.522,1.522,0,0,0,.172-.232,2.567,2.567,0,0,0,.1-.255,1,1,0,0,0,.051-.333V59.68a1.077,1.077,0,0,0-.051-.341,2.389,2.389,0,0,0-.1-.263c-.058-.082-.114-.16-.172-.232" transform="translate(-297.802 -39.829)" fill="#213565"/>
        <path id="Path_57" data-name="Path 57" d="M468.447,58.844h2.541a1.672,1.672,0,0,0-.154.232,1.2,1.2,0,0,0-.12.263,1.078,1.078,0,0,0-.052.341v9.856h1.8a3.5,3.5,0,0,0,1.734-.386,4.079,4.079,0,0,0,1.116-.89,3.73,3.73,0,0,0,.627-.982,6.11,6.11,0,0,0,.249-.681h.309l-.738,3.079h-7.312a1.522,1.522,0,0,0,.172-.232,2.56,2.56,0,0,0,.1-.255,1,1,0,0,0,.051-.333V59.68a1.077,1.077,0,0,0-.051-.341,2.384,2.384,0,0,0-.1-.263c-.058-.082-.114-.16-.172-.232" transform="translate(-317.074 -39.829)" fill="#213565"/>
        <path id="Path_58" data-name="Path 58" d="M487.57,58.748h2.695a.643.643,0,0,0-.052.248v.078a.981.981,0,0,0,.026.209,1.015,1.015,0,0,0,.129.286h.017a.36.36,0,0,0,.06.1q.06.085.24.356t.575.836l1.038,1.485q.644.92,1.622,2.329l.258-.48a7.7,7.7,0,0,0,.841-2.034,6.776,6.776,0,0,0,.137-1.184,3.886,3.886,0,0,0-.1-.812,1.766,1.766,0,0,0-.463-.851,2.762,2.762,0,0,0-.721-.565h3.33l-3.4,6.514v3.512a1.076,1.076,0,0,0,.052.341,1.188,1.188,0,0,0,.12.263.753.753,0,0,0,.172.232h-2.558a1.5,1.5,0,0,0,.172-.232,2.349,2.349,0,0,0,.1-.263,1.076,1.076,0,0,0,.051-.341V65.525L488.257,59.6a3.5,3.5,0,0,0-.223-.325q-.12-.155-.223-.279a2.846,2.846,0,0,0-.24-.248" transform="translate(-330.018 -39.764)" fill="#213565"/>
        <path id="Path_59" data-name="Path 59" d="M533.572,58.8h2.558a1.133,1.133,0,0,0-.172.232,1.2,1.2,0,0,0-.12.263,1.074,1.074,0,0,0-.052.34v4.843h4.635V59.631a1.063,1.063,0,0,0-.052-.34,1.2,1.2,0,0,0-.12-.263,1.126,1.126,0,0,0-.172-.232h2.558a1.707,1.707,0,0,0-.154.232,1.2,1.2,0,0,0-.12.263,1.074,1.074,0,0,0-.051.34v9.191a1,1,0,0,0,.051.333,1.221,1.221,0,0,0,.12.255.967.967,0,0,0,.154.232h-2.558a.752.752,0,0,0,.172-.232,1.218,1.218,0,0,0,.12-.255.994.994,0,0,0,.052-.333V64.629h-4.635v4.193a1,1,0,0,0,.052.333,1.224,1.224,0,0,0,.12.255.755.755,0,0,0,.172.232h-2.558a1.5,1.5,0,0,0,.172-.232,2.569,2.569,0,0,0,.1-.255,1.006,1.006,0,0,0,.051-.333V59.631a1.076,1.076,0,0,0-.051-.34,2.389,2.389,0,0,0-.1-.263q-.086-.124-.172-.232" transform="translate(-361.155 -39.797)" fill="#213565"/>
        <path id="Path_60" data-name="Path 60" d="M563.8,63.983a5.283,5.283,0,0,1,.558-2.507,5.765,5.765,0,0,1,1.365-1.733,5.577,5.577,0,0,1,1.708-1.006,4.738,4.738,0,0,1,1.57-.325,4.636,4.636,0,0,1,1.545.325,5.72,5.72,0,0,1,1.708,1.006,5.81,5.81,0,0,1,1.382,1.733,5.216,5.216,0,0,1,.566,2.507,5.426,5.426,0,0,1-1.828,4.239,5.253,5.253,0,0,1-1.691,1.006,5.032,5.032,0,0,1-1.682.325,4.96,4.96,0,0,1-1.673-.325,5.368,5.368,0,0,1-1.691-1.006,5.456,5.456,0,0,1-1.313-1.733,5.566,5.566,0,0,1-.523-2.507m1.888,0a8.325,8.325,0,0,0,.249,2.05,6.54,6.54,0,0,0,.687,1.725,3.933,3.933,0,0,0,1.047,1.191A2.2,2.2,0,0,0,569,69.4a2.221,2.221,0,0,0,1.33-.441,3.84,3.84,0,0,0,1.047-1.184,6.352,6.352,0,0,0,.678-1.725,8.661,8.661,0,0,0,.24-2.065,7.767,7.767,0,0,0-.266-2.035,6.733,6.733,0,0,0-.721-1.733,4.345,4.345,0,0,0-1.047-1.207A2.032,2.032,0,0,0,569,58.552a2.243,2.243,0,0,0-1.287.41,3.758,3.758,0,0,0-1.056,1.137,6.114,6.114,0,0,0-.712,1.725,8.623,8.623,0,0,0-.258,2.159" transform="translate(-381.613 -39.538)" fill="#213565"/>
        <path id="Path_61" data-name="Path 61" d="M599.919,58.844h2.54a1.7,1.7,0,0,0-.155.232,1.2,1.2,0,0,0-.12.263,1.076,1.076,0,0,0-.052.341v9.856h1.8a3.5,3.5,0,0,0,1.734-.386,4.079,4.079,0,0,0,1.116-.89,3.732,3.732,0,0,0,.627-.982,6.013,6.013,0,0,0,.248-.681h.309l-.738,3.079h-7.312a1.506,1.506,0,0,0,.172-.232,2.5,2.5,0,0,0,.1-.255,1,1,0,0,0,.051-.333V59.68a1.071,1.071,0,0,0-.051-.341,2.333,2.333,0,0,0-.1-.263q-.086-.124-.172-.232" transform="translate(-406.063 -39.829)" fill="#213565"/>
        <path id="Path_62" data-name="Path 62" d="M631.885,58.8a3.911,3.911,0,0,1,1.545.356,4.943,4.943,0,0,1,1.519,1.044,5.578,5.578,0,0,1,1.15,1.7,5.639,5.639,0,0,1,.455,2.329,5.9,5.9,0,0,1-.455,2.414,5.255,5.255,0,0,1-1.15,1.686,4.692,4.692,0,0,1-1.51.99,4.2,4.2,0,0,1-1.554.325h-4.291a1.547,1.547,0,0,0,.172-.232,2.574,2.574,0,0,0,.1-.255,1,1,0,0,0,.052-.333V59.631a1.067,1.067,0,0,0-.052-.34,2.369,2.369,0,0,0-.1-.263q-.086-.124-.172-.232ZM629.808,69.5h1.219a2.977,2.977,0,0,0,1.433-.356,3.438,3.438,0,0,0,1.15-1.029,5.28,5.28,0,0,0,.772-1.656,8.067,8.067,0,0,0,.283-2.236,7.1,7.1,0,0,0-.309-2.15,5.8,5.8,0,0,0-.815-1.671,3.81,3.81,0,0,0-1.159-1.075,2.664,2.664,0,0,0-1.356-.379h-1.219Z" transform="translate(-424.795 -39.797)" fill="#213565"/>
        <path id="Path_63" data-name="Path 63" d="M659.359,58.844h2.523a1.7,1.7,0,0,0-.154.232,1.215,1.215,0,0,0-.12.263,1.067,1.067,0,0,0-.051.341v9.175a.994.994,0,0,0,.051.333,1.24,1.24,0,0,0,.12.255.967.967,0,0,0,.154.232h-2.523a1.5,1.5,0,0,0,.172-.232,2.5,2.5,0,0,0,.1-.255,1,1,0,0,0,.051-.333V59.68a1.078,1.078,0,0,0-.051-.341,2.334,2.334,0,0,0-.1-.263c-.057-.082-.115-.16-.172-.232" transform="translate(-446.295 -39.829)" fill="#213565"/>
        <path id="Path_64" data-name="Path 64" d="M671.262,69.272a2.56,2.56,0,0,0,.283-.379.76.76,0,0,0,.129-.395V59.385l-.412-.542h2.712v.263a1.408,1.408,0,0,0,.068.271,1.1,1.1,0,0,0,.189.317l5.476,6.963V60.034a.759.759,0,0,0-.129-.395,3.424,3.424,0,0,0-.283-.394,4.967,4.967,0,0,0-.429-.4h1.871a4.931,4.931,0,0,0-.429.4,4.3,4.3,0,0,0-.292.394.724.724,0,0,0-.137.395v9.794L671.846,59.6v8.9a.757.757,0,0,0,.129.395,2.024,2.024,0,0,0,.3.379,3.452,3.452,0,0,0,.412.4h-1.854a4.933,4.933,0,0,0,.429-.4" transform="translate(-454.062 -39.829)" fill="#213565"/>
        <path id="Path_65" data-name="Path 65" d="M703.874,63.967a6.039,6.039,0,0,1,.472-2.491,5.168,5.168,0,0,1,1.219-1.733,4.844,4.844,0,0,1,1.674-1.006,5.482,5.482,0,0,1,1.82-.325,4.787,4.787,0,0,1,1.794.3,3.915,3.915,0,0,1,1.219.743,2.47,2.47,0,0,1,.832,1.772q0,.078-.026.34a1.027,1.027,0,0,1-.3.565.97.97,0,0,1-.755.3.914.914,0,0,1-.8-.286,1.041,1.041,0,0,1-.206-.557q-.009-.27-.009-.379,0-.34.026-.611c.017-.18.026-.322.026-.426a2.755,2.755,0,0,0-.094-.689,1.219,1.219,0,0,0-.464-.65,2.072,2.072,0,0,0-1.244-.286,2.448,2.448,0,0,0-1.4.41,3.372,3.372,0,0,0-1.03,1.137,6.066,6.066,0,0,0-.644,1.717,9.767,9.767,0,0,0-.223,2.15,7.741,7.741,0,0,0,.3,2.236,5.828,5.828,0,0,0,.8,1.7,3.611,3.611,0,0,0,1.167,1.083,2.784,2.784,0,0,0,1.39.379,2.663,2.663,0,0,0,.807-.1,1.329,1.329,0,0,0,.481-.255.83.83,0,0,0,.232-.317.881.881,0,0,0,.06-.3v-3a.994.994,0,0,0-.052-.333q-.051-.147-.1-.271a2.056,2.056,0,0,0-.172-.217h2.541a1.1,1.1,0,0,0-.154.217q-.051.124-.1.271a1,1,0,0,0-.051.333v4.131a3.03,3.03,0,0,0-.609-.364,1.3,1.3,0,0,0-.489-.1,1.211,1.211,0,0,0-.377.062l-.429.139a4.7,4.7,0,0,1-.661.185,4.591,4.591,0,0,1-.918.078,6.871,6.871,0,0,1-2.111-.325,4.786,4.786,0,0,1-1.768-1.006,4.908,4.908,0,0,1-1.21-1.733,6.242,6.242,0,0,1-.455-2.491" transform="translate(-476.426 -39.538)" fill="#213565"/>
        <path id="Path_66" data-name="Path 66" d="M75.621,21.165,60.751,5.454a7.22,7.22,0,0,0-7.724-1.4L40.914,9.045l5.56,6.15,14.2-5.882a2.912,2.912,0,0,1,3.112.564l2.428,2.576L40.394,23.021a2.909,2.909,0,0,1-3.111-.564l-8.1-7.617a7.01,7.01,0,0,0-8.65-.775A53.336,53.336,0,0,1,0,22l5.678,6.315C16.146,27.19,24.962,21.5,28.865,18.959a2.714,2.714,0,0,1,3.348.3l8.1,7.617a7.221,7.221,0,0,0,7.724,1.4l23.924-9.728,2.8,2.966Z" transform="translate(0.001 -2.366)" fill="#ba8a55"/>
        <path id="Path_67" data-name="Path 67" d="M180.225,75.158l2.033,2.249a3.47,3.47,0,0,0,3.932.867l3.576-1.562-3.692-3.937Z" transform="translate(-121.988 -49.259)" fill="#ba8a55"/>
        <path id="Path_68" data-name="Path 68" d="M4.728,20.084c-.132,0-.2-.069-.2-.288v-.639h.149s.409,0,.49.311c.185.685.116.685.518.691h.254v-.075a.306.306,0,0,1-.34-.242c-.115-.656-.391-.725-.558-.72a.527.527,0,0,0,.558-.587c0-.524-.345-.6-.973-.6h-.6v.075c.138,0,.2.017.2.219v1.526c0,.265-.058.328-.2.328v.075h.7Zm-.2-2.072h.1c.34,0,.628,0,.628.524,0,.553-.27.547-.628.547h-.1Z" transform="translate(-2.725 -12.141)" fill="#ba8a55"/>
        <path id="Path_69" data-name="Path 69" d="M2.118,19.063A2.113,2.113,0,1,0,0,16.95a2.115,2.115,0,0,0,2.118,2.113m0-3.938A1.822,1.822,0,1,1,.293,16.95a1.827,1.827,0,0,1,1.825-1.825" transform="translate(0 -10.043)" fill="#ba8a55"/>
      </g>
    </g>
  </g>
</svg>
